<svg xmlns="http://www.w3.org/2000/svg" viewBox="0 0 64 64">
  <rect width="64" height="64" rx="13" fill="#f4efe4"/>
  <g transform="translate(4.48 37.79) scale(0.025505)" fill="#23201a">
    <path d="M978.7957763671875 -694.400634765625Q978.7957763671875 -637.601806640625 938.996826171875 -599.1026611328125Q899.1978759765625 -560.603515625 833.7996826171875 -560.603515625Q769.201416015625 -560.603515625 735.3021850585938 -595.8026733398438Q701.4029541015625 -631.0018310546875 701.4029541015625 -689.0006103515625V-721.00048828125Q701.4029541015625 -788.6007080078125 660.10205078125 -830.1009521484375Q618.8011474609375 -871.6011962890625 546.7994384765625 -871.6011962890625Q483.7977294921875 -871.6011962890625 433.89654541015625 -834.00048828125Q383.995361328125 -796.3997802734375 354.79473876953125 -725.3987426757812Q325.5941162109375 -654.397705078125 325.5941162109375 -555.9967041015625Q325.5941162109375 -429.3961181640625 368.49432373046875 -343.3956298828125Q411.39453125 -257.3951416015625 486.3948974609375 -212.5948486328125Q561.395263671875 -167.7945556640625 655.9957275390625 -167.7945556640625Q741.39697265625 -167.7945556640625 805.397705078125 -202.595703125Q869.3984375 -237.3968505859375 906.1976318359375 -300.9979248046875Q923.39697265625 -319.99755859375 933.896728515625 -327.19744873046875Q944.396484375 -334.3973388671875 956.3963623046875 -334.3973388671875Q971.3961181640625 -334.3973388671875 978.4959716796875 -320.4976806640625Q985.5958251953125 -306.5980224609375 985.19580078125 -286.99853515625Q981.195556640625 -202.1988525390625 926.495849609375 -131.0992431640625Q871.796142578125 -59.9996337890625 778.8969116210938 -17.59991455078125Q685.9976806640625 24.7998046875 565.1988525390625 24.7998046875Q421.1993408203125 24.7998046875 309.59991455078125 -34.70013427734375Q198.00048828125 -94.2000732421875 134.50091552734375 -201.20001220703125Q71.0013427734375 -308.199951171875 71.0013427734375 -452.39990234375Q71.0013427734375 -599.7994384765625 134.50103759765625 -716.6991577148438Q198.000732421875 -833.598876953125 313.0001220703125 -901.998779296875Q427.99951171875 -970.398681640625 583.5986328125 -970.398681640625Q705.7977294921875 -970.398681640625 794.5971069335938 -932.4989013671875Q883.396484375 -894.59912109375 931.0961303710938 -832.0995483398438Q978.7957763671875 -769.5999755859375 978.7957763671875 -694.400634765625Z"/>
    <path d="M1710.393310546875 -146.19677734375 1561.998291015625 124.396728515625 1152.201171875 -782.2010498046875Q1134.201171875 -822.001220703125 1116.2011108398438 -837.1011962890625Q1098.2010498046875 -852.201171875 1059.600341796875 -862.801025390625Q1040.400390625 -869.600830078125 1032.4004516601562 -879.2006225585938Q1024.4005126953125 -888.8004150390625 1024.4005126953125 -905.60009765625Q1024.4005126953125 -924.599609375 1038.4002075195312 -935.6993408203125Q1052.39990234375 -946.799072265625 1076.9993896484375 -946.799072265625H1525.5938720703125Q1549.993408203125 -946.799072265625 1563.9931030273438 -935.8993530273438Q1577.9927978515625 -924.9996337890625 1577.9927978515625 -906.0001220703125Q1577.9927978515625 -889.200439453125 1568.992919921875 -879.400634765625Q1559.9930419921875 -869.600830078125 1537.1932373046875 -864.0009765625L1500.192626953125 -856.801025390625Q1454.59228515625 -846.8011474609375 1446.792236328125 -822.8013305664062Q1438.9921875 -798.801513671875 1464.1920166015625 -739.2017822265625ZM1521.9954833984375 158.4044189453125 1584.3975830078125 3.7989501953125 1620.196533203125 -66.19921875 1883.397705078125 -726.80224609375Q1908.1976318359375 -786.802001953125 1900.3975830078125 -814.4016723632812Q1892.5975341796875 -842.0013427734375 1845.59716796875 -852.6011962890625L1805.396728515625 -861.60107421875Q1783.1968994140625 -867.200927734375 1773.5970458984375 -878.0006713867188Q1763.9971923828125 -888.8004150390625 1763.9971923828125 -906.0001220703125Q1763.9971923828125 -924.9996337890625 1777.9968872070312 -935.8993530273438Q1791.99658203125 -946.799072265625 1816.3961181640625 -946.799072265625H2100.3963623046875Q2124.5958251953125 -946.799072265625 2138.7955322265625 -935.6993408203125Q2152.9952392578125 -924.599609375 2152.9952392578125 -905.60009765625Q2152.9952392578125 -891.2003173828125 2144.5953369140625 -881.0005493164062Q2136.1954345703125 -870.80078125 2113.7955322265625 -862.2010498046875Q2069.9951171875 -848.0013427734375 2046.395263671875 -824.6016845703125Q2022.79541015625 -801.2020263671875 2000.3956298828125 -745.6025390625L1642.3924560546875 136.2059326171875Q1587.5933837890625 271.2037353515625 1539.3939208984375 345.402587890625Q1491.1944580078125 419.6014404296875 1436.3951416015625 447.9010009765625Q1381.5958251953125 476.2005615234375 1303.1971435546875 476.2005615234375Q1186.798828125 476.2005615234375 1119.7999267578125 414.10150146484375Q1052.801025390625 352.00244140625 1052.801025390625 262.6041259765625Q1052.801025390625 198.8052978515625 1083.7003173828125 162.10601806640625Q1114.599609375 125.40673828125 1167.3984375 125.40673828125Q1218.197265625 125.40673828125 1245.5966796875 156.40618896484375Q1272.99609375 187.4056396484375 1290.3953857421875 238.2047119140625L1302.994873046875 277.004150390625Q1311.39453125 312.0042724609375 1329.1945190429688 330.30419921875Q1346.9945068359375 348.6041259765625 1370.794677734375 348.6041259765625Q1394.9949951171875 348.6041259765625 1416.2952880859375 334.40399169921875Q1437.5955810546875 320.203857421875 1462.9956665039062 279.20391845703125Q1488.395751953125 238.2039794921875 1521.9954833984375 158.4044189453125Z"/>
  </g>
</svg>
